<svg width="92" height="92" viewBox="0 0 92 92" fill="none" xmlns="http://www.w3.org/2000/svg">
<path d="M81.7778 9.2H76.6667V0H66.4445V9.2H25.5556V0H15.3333V9.2H10.2222C4.54889 9.2 0.0511111 13.34 0.0511111 18.4L0 82.8C0 87.86 4.54889 92 10.2222 92H81.7778C87.4 92 92 87.86 92 82.8V18.4C92 13.34 87.4 9.2 81.7778 9.2ZM81.7778 82.8H10.2222V36.8H81.7778V82.8ZM30.6667 55.2H20.4444V46H30.6667V55.2ZM51.1111 55.2H40.8889V46H51.1111V55.2ZM71.5556 55.2H61.3333V46H71.5556V55.2ZM30.6667 73.6H20.4444V64.4H30.6667V73.6ZM51.1111 73.6H40.8889V64.4H51.1111V73.6ZM71.5556 73.6H61.3333V64.4H71.5556V73.6Z" fill="#969696"/>
</svg>
