<svg width="111" height="111" viewBox="0 0 111 111" fill="none" xmlns="http://www.w3.org/2000/svg">
<path d="M55.4999 0.0834961C24.9099 0.0834961 0.083252 24.9102 0.083252 55.5002C0.083252 86.0902 24.9099 110.917 55.4999 110.917C86.0899 110.917 110.917 86.0902 110.917 55.5002C110.917 24.9102 86.0899 0.0834961 55.4999 0.0834961ZM55.4999 22.2502C66.1953 22.2502 74.8958 30.9506 74.8958 41.646C74.8958 52.3414 66.1953 61.0418 55.4999 61.0418C44.8045 61.0418 36.1041 52.3414 36.1041 41.646C36.1041 30.9506 44.8045 22.2502 55.4999 22.2502ZM55.4999 99.8335C44.2503 99.8335 30.9503 95.2893 21.4741 83.8735C30.8395 76.5585 42.6433 72.1252 55.4999 72.1252C68.3566 72.1252 80.1603 76.5585 89.5258 83.8735C80.0495 95.2893 66.7495 99.8335 55.4999 99.8335Z" fill="#534127"/>
</svg>
